# xmcd
#
# Track frame offsets:
#	150
#	14720
#	28644
#	49386
#	63872
#	77315
#	95269
#	107501
#	118399
#	134120
#	147541
#	158457
#	168761
#
# Disc length: 2411 seconds
#
# Revision: 1
# Processed by: cddbd v1.5.1PL0 Copyright (c) Steve Scherf et al.
# Submitted via: EasyCDDAExtractor 7.0.5.4
#
DISCID=ab09690d
DTITLE=Jim Adam - Live at Jimbo's
DYEAR=2005
DGENRE=Blues
TTITLE0=Nothin' To Do
TTITLE1=What Owns You
TTITLE2=Come On In My Kitchen
TTITLE3=Grandma's Hands
TTITLE4=Inside Out
TTITLE5=Little Girl
TTITLE6=Kindhearted Woman
TTITLE7=Paper Thin
TTITLE8=Alone and Forsaken
TTITLE9=Open Door Policy
TTITLE10=Give Him What You Got
TTITLE11=Somebody On Your Bond
TTITLE12=No Man At All
EXTD=
EXTT0=
EXTT1=
EXTT2=
EXTT3=
EXTT4=
EXTT5=
EXTT6=
EXTT7=
EXTT8=
EXTT9=
EXTT10=
EXTT11=
EXTT12=
PLAYORDER=
